<?xml version="1.0" encoding="utf-8"?>
<!-- Generator: Adobe Illustrator 19.0.0, SVG Export Plug-In . SVG Version: 6.00 Build 0)  -->
<svg version="1.1" id="Layer_1" xmlns="http://www.w3.org/2000/svg" xmlns:xlink="http://www.w3.org/1999/xlink" x="0px" y="0px"
	 width="100px" height="100px" viewBox="0 0 100 100" style="enable-background:new 0 0 100 100;" xml:space="preserve">
<style type="text/css">
	.st0{fill:#003459;}
	.st1{fill:none;}
	.st2{fill:#00A8E8;}
	.st3{fill:#007EA7;}
	.st4{fill:#FFFFFF;}
</style>
<g id="XMLID_456_">
	<circle id="XMLID_320_" class="st0" cx="49.7" cy="50.3" r="45.7"/>
	<g id="XMLID_355_">
		<rect id="XMLID_30_" x="-2.1" y="70.3" class="st1" width="103.3" height="17.7"/>
		<path id="XMLID_2_" class="st2" d="M18.9,72.4v2.7h0.3c0.2,0,0.4,0,0.5,0.1s0.1,0.2,0.1,0.3c0,0.1,0,0.2-0.1,0.3S19.4,76,19.2,76
			H18c-0.2,0-0.4,0-0.5-0.1s-0.1-0.2-0.1-0.3c0-0.1,0-0.2,0.1-0.3c0.1-0.1,0.2-0.1,0.4-0.1v-3.5h-0.1c-0.2,0-0.4,0-0.5-0.1
			s-0.1-0.2-0.1-0.3c0-0.1,0-0.2,0.1-0.3c0.1-0.1,0.2-0.1,0.5-0.1l1,0l2.3,3.6v-2.7h-0.3c-0.2,0-0.4,0-0.5-0.1s-0.1-0.2-0.1-0.3
			c0-0.1,0-0.2,0.1-0.3c0.1-0.1,0.2-0.1,0.5-0.1l1.2,0c0.2,0,0.4,0,0.5,0.1c0.1,0.1,0.1,0.2,0.1,0.3c0,0.1,0,0.2-0.1,0.3
			c-0.1,0.1-0.2,0.1-0.4,0.1V76h-0.9L18.9,72.4z"/>
		<path id="XMLID_4_" class="st2" d="M27.6,74.5H24c0.1,0.2,0.3,0.4,0.5,0.6c0.2,0.1,0.6,0.2,1,0.2c0.3,0,0.8-0.1,1.3-0.2
			C27,75,27.1,75,27.2,75c0.1,0,0.2,0,0.3,0.1c0.1,0.1,0.1,0.2,0.1,0.3c0,0.1,0,0.2-0.1,0.3c-0.1,0.1-0.4,0.2-0.9,0.3
			c-0.5,0.1-0.9,0.1-1.3,0.1c-0.7,0-1.3-0.2-1.7-0.6C23.2,75.1,23,74.6,23,74c0-0.6,0.2-1.1,0.7-1.5c0.5-0.4,1-0.6,1.6-0.6
			c0.4,0,0.7,0.1,1,0.2s0.5,0.3,0.7,0.4c0.2,0.2,0.4,0.5,0.5,0.8c0.1,0.2,0.1,0.5,0.1,0.8V74.5z M26.6,73.6
			c-0.1-0.3-0.3-0.4-0.5-0.6s-0.5-0.2-0.8-0.2c-0.3,0-0.6,0.1-0.8,0.2s-0.4,0.3-0.5,0.6H26.6z"/>
		<path id="XMLID_7_" class="st2" d="M32.7,72v3.1c0.2,0,0.3,0,0.4,0.1c0.1,0.1,0.1,0.2,0.1,0.3s0,0.2-0.1,0.3S32.8,76,32.6,76h-0.9
			v-0.2c-0.3,0.1-0.5,0.2-0.7,0.3c-0.2,0.1-0.5,0.1-0.7,0.1c-0.3,0-0.5-0.1-0.8-0.2s-0.4-0.3-0.5-0.5C29,75.3,29,75.1,29,74.9v-1.9
			h-0.2c-0.2,0-0.4,0-0.5-0.1c-0.1-0.1-0.1-0.2-0.1-0.3c0-0.1,0-0.2,0.1-0.3c0.1-0.1,0.2-0.1,0.5-0.1h1v2.7c0,0.2,0,0.3,0.1,0.4
			s0.2,0.1,0.4,0.1c0.2,0,0.4,0,0.6-0.1s0.5-0.2,0.8-0.4v-1.8h-0.3c-0.2,0-0.4,0-0.5-0.1c-0.1-0.1-0.1-0.2-0.1-0.3
			c0-0.1,0-0.2,0.1-0.3c0.1-0.1,0.2-0.1,0.5-0.1H32.7z"/>
		<path id="XMLID_9_" class="st2" d="M36,72v0.6c0.4-0.3,0.7-0.5,0.9-0.5c0.2-0.1,0.4-0.1,0.6-0.1c0.3,0,0.6,0.1,0.8,0.3
			c0.2,0.1,0.3,0.3,0.3,0.4c0,0.1,0,0.2-0.1,0.3s-0.2,0.1-0.3,0.1c-0.1,0-0.2-0.1-0.4-0.2c-0.1-0.1-0.2-0.2-0.3-0.2
			c-0.1,0-0.3,0.1-0.6,0.2c-0.2,0.2-0.6,0.4-0.9,0.7v1.4h1.3c0.2,0,0.4,0,0.5,0.1c0.1,0.1,0.1,0.2,0.1,0.3c0,0.1,0,0.2-0.1,0.3
			C37.6,76,37.4,76,37.2,76h-2.7c-0.2,0-0.4,0-0.5-0.1c-0.1-0.1-0.1-0.2-0.1-0.3c0-0.1,0-0.2,0.1-0.3c0.1-0.1,0.2-0.1,0.5-0.1h0.5
			v-2.2h-0.3c-0.2,0-0.4,0-0.5-0.1c-0.1-0.1-0.1-0.2-0.1-0.3c0-0.1,0-0.2,0.1-0.3c0.1-0.1,0.2-0.1,0.5-0.1H36z"/>
		<path id="XMLID_11_" class="st2" d="M43.8,74.1c0,0.3-0.1,0.7-0.3,1s-0.5,0.6-0.9,0.8c-0.4,0.2-0.8,0.3-1.2,0.3
			c-0.4,0-0.8-0.1-1.2-0.3c-0.4-0.2-0.7-0.4-0.9-0.8c-0.2-0.3-0.3-0.7-0.3-1c0-0.4,0.1-0.7,0.3-1.1c0.2-0.3,0.5-0.6,0.9-0.8
			c0.4-0.2,0.8-0.3,1.2-0.3c0.4,0,0.8,0.1,1.2,0.3c0.4,0.2,0.7,0.5,0.9,0.8S43.8,73.7,43.8,74.1z M42.9,74.1c0-0.3-0.1-0.6-0.3-0.8
			c-0.3-0.3-0.7-0.5-1.1-0.5c-0.4,0-0.7,0.1-1,0.4c-0.3,0.3-0.4,0.6-0.4,0.9c0,0.3,0.1,0.5,0.4,0.8c0.3,0.2,0.6,0.4,1,0.4
			c0.4,0,0.7-0.1,1-0.4C42.8,74.6,42.9,74.4,42.9,74.1z"/>
		<path id="XMLID_14_" class="st2" d="M45.6,75.8c-0.1,0.1-0.1,0.2-0.2,0.2c0,0-0.1,0-0.2,0c-0.1,0-0.2,0-0.3-0.1s-0.1-0.2-0.1-0.5
			v-0.6c0-0.2,0-0.4,0.1-0.5s0.2-0.1,0.3-0.1c0.1,0,0.2,0,0.3,0.1s0.1,0.1,0.2,0.3c0,0.1,0.1,0.2,0.1,0.3c0.1,0.1,0.2,0.2,0.5,0.3
			c0.2,0.1,0.5,0.1,0.7,0.1c0.4,0,0.7-0.1,1-0.3c0.2-0.1,0.2-0.3,0.2-0.4c0-0.1,0-0.2-0.1-0.3S47.8,74,47.6,74
			c-0.1,0-0.4-0.1-0.8-0.2c-0.5-0.1-0.9-0.2-1.1-0.3s-0.4-0.3-0.6-0.5c-0.1-0.2-0.2-0.5-0.2-0.8c0-0.4,0.2-0.8,0.5-1.1
			c0.4-0.3,0.8-0.5,1.4-0.5c0.2,0,0.4,0,0.6,0.1c0.2,0.1,0.4,0.1,0.5,0.2c0.1-0.1,0.2-0.2,0.3-0.2c0.1,0,0.2,0,0.3,0.1
			s0.1,0.2,0.1,0.5V72c0,0.2,0,0.4-0.1,0.5s-0.2,0.1-0.3,0.1c-0.1,0-0.2,0-0.3-0.1c-0.1,0-0.1-0.1-0.1-0.3c0-0.1-0.1-0.3-0.1-0.3
			c-0.1-0.1-0.2-0.2-0.4-0.3c-0.2-0.1-0.4-0.1-0.6-0.1c-0.3,0-0.6,0.1-0.8,0.2c-0.2,0.2-0.3,0.3-0.3,0.5c0,0.1,0,0.2,0.1,0.3
			c0.1,0.1,0.2,0.2,0.3,0.2c0.1,0,0.4,0.1,0.8,0.2c0.5,0.1,0.8,0.2,1.1,0.3c0.2,0.1,0.5,0.3,0.6,0.5C49,74,49,74.2,49,74.5
			c0,0.4-0.2,0.8-0.5,1.1c-0.4,0.3-0.9,0.5-1.6,0.5c-0.2,0-0.5,0-0.7-0.1C46,76,45.8,75.9,45.6,75.8z"/>
		<path id="XMLID_16_" class="st2" d="M52,72.9v1.8c0,0.2,0,0.3,0.1,0.4c0.1,0.1,0.3,0.1,0.7,0.1c0.5,0,0.9-0.1,1.3-0.3
			c0.1-0.1,0.3-0.1,0.4-0.1c0.1,0,0.2,0,0.3,0.1c0.1,0.1,0.1,0.2,0.1,0.3c0,0.1,0,0.2-0.1,0.3c-0.1,0.1-0.4,0.3-0.8,0.4
			c-0.4,0.1-0.8,0.2-1.1,0.2c-0.6,0-1-0.1-1.3-0.4c-0.3-0.2-0.4-0.5-0.4-0.9v-2h-0.3c-0.2,0-0.4,0-0.5-0.1c-0.1-0.1-0.1-0.2-0.1-0.3
			c0-0.1,0-0.2,0.1-0.3c0.1-0.1,0.2-0.1,0.5-0.1h0.3v-0.8c0-0.2,0-0.4,0.1-0.5s0.2-0.1,0.3-0.1c0.1,0,0.2,0,0.3,0.1S52,71,52,71.2
			V72h1.7c0.2,0,0.4,0,0.5,0.1c0.1,0.1,0.1,0.2,0.1,0.3c0,0.1,0,0.2-0.1,0.3c-0.1,0.1-0.2,0.1-0.5,0.1H52z"/>
		<path id="XMLID_18_" class="st2" d="M59.9,74.5h-3.7c0.1,0.2,0.3,0.4,0.5,0.6c0.2,0.1,0.6,0.2,1,0.2c0.3,0,0.8-0.1,1.3-0.2
			c0.2-0.1,0.4-0.1,0.5-0.1c0.1,0,0.2,0,0.3,0.1c0.1,0.1,0.1,0.2,0.1,0.3c0,0.1,0,0.2-0.1,0.3c-0.1,0.1-0.4,0.2-0.9,0.3
			c-0.5,0.1-0.9,0.1-1.3,0.1c-0.7,0-1.3-0.2-1.7-0.6c-0.4-0.4-0.6-0.9-0.6-1.5c0-0.6,0.2-1.1,0.7-1.5s1-0.6,1.6-0.6
			c0.4,0,0.7,0.1,1,0.2s0.5,0.3,0.7,0.4c0.2,0.2,0.4,0.5,0.5,0.8c0.1,0.2,0.1,0.5,0.1,0.8V74.5z M58.9,73.6
			c-0.1-0.3-0.3-0.4-0.5-0.6s-0.5-0.2-0.8-0.2c-0.3,0-0.6,0.1-0.8,0.2s-0.4,0.3-0.5,0.6H58.9z"/>
		<path id="XMLID_21_" class="st2" d="M63.5,70.3v4.8h1.1c0.2,0,0.4,0,0.5,0.1s0.1,0.2,0.1,0.3c0,0.1,0,0.2-0.1,0.3S64.8,76,64.5,76
			h-3c-0.2,0-0.4,0-0.5-0.1s-0.1-0.2-0.1-0.3c0-0.1,0-0.2,0.1-0.3s0.2-0.1,0.5-0.1h1.1v-3.9h-0.7c-0.2,0-0.4,0-0.5-0.1
			c-0.1-0.1-0.1-0.2-0.1-0.3c0-0.1,0-0.2,0.1-0.3s0.2-0.1,0.5-0.1H63.5z"/>
		<path id="XMLID_23_" class="st2" d="M68.8,70.3v4.8h1.1c0.2,0,0.4,0,0.5,0.1s0.1,0.2,0.1,0.3c0,0.1,0,0.2-0.1,0.3S70.1,76,69.9,76
			h-3c-0.2,0-0.4,0-0.5-0.1s-0.1-0.2-0.1-0.3c0-0.1,0-0.2,0.1-0.3s0.2-0.1,0.5-0.1h1.1v-3.9h-0.7c-0.2,0-0.4,0-0.5-0.1
			c-0.1-0.1-0.1-0.2-0.1-0.3c0-0.1,0-0.2,0.1-0.3s0.2-0.1,0.5-0.1H68.8z"/>
		<path id="XMLID_25_" class="st2" d="M74.6,76v-0.2c-0.2,0.1-0.5,0.2-0.7,0.3s-0.5,0.1-0.7,0.1c-0.5,0-0.9-0.1-1.2-0.4
			c-0.3-0.3-0.5-0.5-0.5-0.8c0-0.4,0.2-0.7,0.6-1c0.4-0.3,0.9-0.5,1.6-0.5c0.3,0,0.6,0,0.9,0.1v-0.2c0-0.1-0.1-0.2-0.2-0.3
			s-0.3-0.1-0.7-0.1c-0.3,0-0.6,0.1-1,0.2c-0.2,0-0.3,0.1-0.4,0.1c-0.1,0-0.2,0-0.3-0.1c-0.1-0.1-0.1-0.2-0.1-0.3c0-0.1,0-0.1,0-0.2
			s0.1-0.1,0.1-0.1c0.1,0,0.2-0.1,0.3-0.1c0.2-0.1,0.4-0.1,0.7-0.1c0.2,0,0.4-0.1,0.6-0.1c0.6,0,1,0.1,1.3,0.4
			c0.3,0.2,0.5,0.6,0.5,1v1.8h0.2c0.2,0,0.4,0,0.5,0.1s0.1,0.2,0.1,0.3c0,0.1,0,0.2-0.1,0.3S75.8,76,75.6,76H74.6z M74.6,74.4
			c-0.4-0.1-0.7-0.1-1-0.1c-0.4,0-0.7,0.1-0.9,0.3c-0.2,0.1-0.2,0.2-0.2,0.3c0,0.1,0,0.2,0.1,0.2c0.1,0.1,0.3,0.1,0.6,0.1
			c0.2,0,0.5,0,0.7-0.1c0.3-0.1,0.5-0.2,0.7-0.3V74.4z"/>
		<path id="XMLID_28_" class="st2" d="M79,72v0.6c0.4-0.3,0.7-0.5,0.9-0.5c0.2-0.1,0.4-0.1,0.6-0.1c0.3,0,0.6,0.1,0.8,0.3
			c0.2,0.1,0.3,0.3,0.3,0.4c0,0.1,0,0.2-0.1,0.3s-0.2,0.1-0.3,0.1c-0.1,0-0.2-0.1-0.3-0.2c-0.1-0.1-0.2-0.2-0.3-0.2
			c-0.1,0-0.3,0.1-0.6,0.2c-0.2,0.2-0.6,0.4-0.9,0.7v1.4h1.3c0.2,0,0.4,0,0.5,0.1c0.1,0.1,0.1,0.2,0.1,0.3c0,0.1,0,0.2-0.1,0.3
			C80.6,76,80.4,76,80.2,76h-2.7c-0.2,0-0.4,0-0.5-0.1s-0.1-0.2-0.1-0.3c0-0.1,0-0.2,0.1-0.3s0.2-0.1,0.5-0.1h0.5v-2.2h-0.3
			c-0.2,0-0.4,0-0.5-0.1c-0.1-0.1-0.1-0.2-0.1-0.3c0-0.1,0-0.2,0.1-0.3c0.1-0.1,0.2-0.1,0.5-0.1H79z"/>
	</g>
	<g id="XMLID_360_">
		<path id="XMLID_354_" class="st3" d="M74,82.6c0,0.2-0.2,0.4-0.4,0.4H26.4c-0.2,0-0.4-0.2-0.4-0.4v-0.3c0-0.2,0.2-0.4,0.4-0.4
			h47.3c0.2,0,0.4,0.2,0.4,0.4V82.6z"/>
		<path id="XMLID_353_" class="st3" d="M62,88.6c0,0.2-0.2,0.4-0.4,0.4H36.4c-0.2,0-0.4-0.2-0.4-0.4v-0.3c0-0.2,0.2-0.4,0.4-0.4
			h25.3c0.2,0,0.4,0.2,0.4,0.4V88.6z"/>
	</g>
	<g id="XMLID_321_">
		<path id="XMLID_436_" class="st3" d="M79.4,44.8c-4.1,1-8.7,2.8-13.2,5.8c-4.6,3.1-8.1,6.7-10.7,10.2c-1.9-2.8-3.7-5.6-5.6-8.3
			c4.2-1.3,8.7-3.2,13.1-6.2c4.5-3,8-6.5,10.7-9.8C75.7,39.2,77.6,42,79.4,44.8z"/>
		<path id="XMLID_435_" class="st3" d="M47.1,52.7c-2.5-0.4-7.1-1.6-12-4.8c-4.9-3.3-7.8-7.2-9.1-9.3c-1.3,2-2.7,4-4,6
			c2.6,0.5,7.1,1.8,12,5c4.8,3.2,7.7,7,9.1,9.2C44.5,56.7,45.8,54.7,47.1,52.7z"/>
		<path id="XMLID_434_" class="st3" d="M76.6,31.7c-2.5-0.4-7.1-1.6-11.9-4.8c-4.9-3.3-7.7-7.1-9.1-9.3c-1.3,2-2.7,4-4,6
			c2.6,0.5,7.1,1.7,11.9,5c4.8,3.2,7.6,6.9,9,9.1C73.9,35.7,75.3,33.7,76.6,31.7z"/>
		<path id="XMLID_433_" class="st3" d="M50,25c-4.1,1.1-8.6,2.8-13,5.8c-4.5,3.1-7.8,6.8-10.3,10.4c-2-2.8-3.9-5.7-5.9-8.5
			c4.1-1.3,8.6-3.2,12.9-6.2c4.4-3,7.8-6.5,10.4-10C46.1,19.3,48,22.1,50,25z"/>
		<g id="XMLID_346_">
			<g id="XMLID_352_">
				<circle id="XMLID_359_" class="st2" cx="78.1" cy="38.4" r="7.2"/>
			</g>
			<g id="XMLID_347_">
				<path id="XMLID_351_" class="st4" d="M84.7,38.4h-6.6v-6.6c0.5,1.7,1,3.4,1.6,5.1C81.3,37.4,83,37.9,84.7,38.4z"/>
				<path id="XMLID_350_" class="st4" d="M71.5,38.4h6.6v-6.6c-0.5,1.7-1,3.4-1.6,5.1C74.8,37.4,73.2,37.9,71.5,38.4z"/>
				<path id="XMLID_349_" class="st4" d="M84.7,38.4h-6.6V45c0.5-1.7,1-3.4,1.6-5.1C81.3,39.4,83,38.9,84.7,38.4z"/>
				<path id="XMLID_348_" class="st4" d="M71.5,38.4h6.6V45c-0.5-1.7-1-3.4-1.6-5.1C74.8,39.4,73.2,38.9,71.5,38.4z"/>
			</g>
		</g>
		<g id="XMLID_338_">
			<g id="XMLID_344_">
				<circle id="XMLID_345_" class="st2" cx="50.5" cy="19.2" r="7.2"/>
			</g>
			<g id="XMLID_339_">
				<path id="XMLID_343_" class="st4" d="M57.1,19.2h-6.6v-6.6c0.5,1.7,1,3.4,1.6,5.1C53.8,18.2,55.4,18.7,57.1,19.2z"/>
				<path id="XMLID_342_" class="st4" d="M43.9,19.2h6.6v-6.6c-0.5,1.7-1,3.4-1.6,5.1C47.3,18.2,45.6,18.7,43.9,19.2z"/>
				<path id="XMLID_341_" class="st4" d="M57.1,19.2h-6.6v6.6c0.5-1.7,1-3.4,1.6-5.1C53.8,20.2,55.4,19.7,57.1,19.2z"/>
				<path id="XMLID_340_" class="st4" d="M43.9,19.2h6.6v6.6c-0.5-1.7-1-3.4-1.6-5.1C47.3,20.2,45.6,19.7,43.9,19.2z"/>
			</g>
		</g>
		<g id="XMLID_330_">
			<g id="XMLID_336_">
				<circle id="XMLID_337_" class="st2" cx="49.7" cy="57.6" r="7.2"/>
			</g>
			<g id="XMLID_331_">
				<path id="XMLID_335_" class="st4" d="M56.3,57.6h-6.6V51c0.5,1.7,1,3.4,1.6,5.1C52.9,56.6,54.6,57.1,56.3,57.6z"/>
				<path id="XMLID_334_" class="st4" d="M43,57.6h6.6V51c-0.5,1.7-1,3.4-1.6,5.1C46.4,56.6,44.7,57.1,43,57.6z"/>
				<path id="XMLID_333_" class="st4" d="M56.3,57.6h-6.6v6.6c0.5-1.7,1-3.4,1.6-5.1C52.9,58.7,54.6,58.1,56.3,57.6z"/>
				<path id="XMLID_332_" class="st4" d="M43,57.6h6.6v6.6c-0.5-1.7-1-3.4-1.6-5.1C46.4,58.7,44.7,58.1,43,57.6z"/>
			</g>
		</g>
		<g id="XMLID_322_">
			<g id="XMLID_328_">
				<circle id="XMLID_329_" class="st2" cx="20.4" cy="38.4" r="7.2"/>
			</g>
			<g id="XMLID_323_">
				<path id="XMLID_327_" class="st4" d="M27,38.4h-6.6v-6.6c0.5,1.7,1,3.4,1.6,5.1C23.7,37.4,25.3,37.9,27,38.4z"/>
				<path id="XMLID_326_" class="st4" d="M13.8,38.4h6.6v-6.6c-0.5,1.7-1,3.4-1.6,5.1C17.2,37.4,15.5,37.9,13.8,38.4z"/>
				<path id="XMLID_325_" class="st4" d="M27,38.4h-6.6V45c0.5-1.7,1-3.4,1.6-5.1C23.7,39.4,25.3,38.9,27,38.4z"/>
				<path id="XMLID_324_" class="st4" d="M13.8,38.4h6.6V45c-0.5-1.7-1-3.4-1.6-5.1C17.2,39.4,15.5,38.9,13.8,38.4z"/>
			</g>
		</g>
	</g>
</g>
<g id="XMLID_1_">
</g>
<g id="XMLID_31_">
</g>
<g id="XMLID_32_">
</g>
<g id="XMLID_33_">
</g>
<g id="XMLID_34_">
</g>
<g id="XMLID_35_">
</g>
<g id="XMLID_36_">
</g>
<g id="XMLID_37_">
</g>
<g id="XMLID_38_">
</g>
<g id="XMLID_39_">
</g>
<g id="XMLID_40_">
</g>
<g id="XMLID_41_">
</g>
<g id="XMLID_42_">
</g>
<g id="XMLID_43_">
</g>
<g id="XMLID_44_">
</g>
</svg>
