<?xml version="1.0" encoding="utf-8"?>
<!-- Generator: Adobe Illustrator 19.0.0, SVG Export Plug-In . SVG Version: 6.00 Build 0)  -->
<svg version="1.1" id="Layer_1" xmlns="http://www.w3.org/2000/svg" xmlns:xlink="http://www.w3.org/1999/xlink" x="0px" y="0px"
	 width="1000px" height="700px" viewBox="0 0 1000 700" style="enable-background:new 0 0 1000 700;" xml:space="preserve">
<style type="text/css">
	.st0{fill:#007EA7;}
	.st1{fill:#00A8E8;}
	.st2{fill:#FFFFFF;}
</style>
<g id="XMLID_273_">
	<path id="XMLID_274_" class="st0" d="M895.8,433.5C841.3,447.3,781,470.5,722,509.7c-60.6,40.3-106,88.3-140,134.5
		c-24.5-36.5-49-73-73.5-109.5c54.8-16.7,114.1-42.1,172.6-81.4C739.8,414,786,368.6,822.2,324C846.8,360.5,871.3,397,895.8,433.5z"
		/>
	<path id="XMLID_275_" class="st0" d="M471.8,537.7c-32.9-5.8-93.3-20.8-157.2-63.4c-64.8-43.3-102-94.3-119.9-122.6
		c-17.6,26.3-35.3,52.5-52.9,78.8c34,6.8,93.9,23.1,157.3,65.8c63.1,42.4,100.7,91.4,119.8,120.3C436.5,590.3,454.2,564,471.8,537.7
		z"/>
	<path id="XMLID_281_" class="st0" d="M859.1,261.9c-32.7-5.7-92.8-20.4-156.3-62.8c-64.3-43-101.2-93.8-118.9-122
		c-17.6,26.3-35.3,52.5-52.9,78.8c33.8,6.7,93.4,22.8,156.4,65.1c62.6,42.1,99.9,90.9,118.9,119.7
		C823.9,314.5,841.5,288.2,859.1,261.9z"/>
	<path id="XMLID_282_" class="st0" d="M509,173.3c-54.1,13.8-113.6,37.2-171.3,76.8c-59.3,40.7-103.1,89.3-135.6,136.1
		c-25.7-37.1-51.5-74.2-77.2-111.4c54.3-16.7,112.8-42.4,170-82.1C352.3,153,396.9,107,431.7,61.9C457.5,99,483.2,136.2,509,173.3z"
		/>
	<g id="XMLID_283_">
		<g id="XMLID_302_">
			<circle id="XMLID_303_" class="st1" cx="878.4" cy="350.1" r="94.3"/>
		</g>
		<g id="XMLID_370_">
			<path id="XMLID_364_" class="st2" d="M965.4,350.1h-86.9v-86.9c6.8,22.4,13.7,44.8,20.5,67.2
				C921.1,336.9,943.2,343.5,965.4,350.1z"/>
			<path id="XMLID_365_" class="st2" d="M791.5,350.1h86.9v-86.9c-6.8,22.4-13.7,44.8-20.5,67.2
				C835.7,336.9,813.6,343.5,791.5,350.1z"/>
			<path id="XMLID_369_" class="st2" d="M965.4,350.1h-86.9v86.9c6.8-22.4,13.7-44.8,20.5-67.2C921.1,363.3,943.2,356.7,965.4,350.1
				z"/>
			<path id="XMLID_366_" class="st2" d="M791.5,350.1h86.9v86.9c-6.8-22.4-13.7-44.8-20.5-67.2C835.7,363.3,813.6,356.7,791.5,350.1
				z"/>
		</g>
	</g>
	<g id="XMLID_284_">
		<g id="XMLID_288_">
			<circle id="XMLID_289_" class="st1" cx="516" cy="97.5" r="94.3"/>
		</g>
		<g id="XMLID_285_">
			<path id="XMLID_287_" class="st2" d="M602.9,97.5H516V10.6c6.8,22.4,13.7,44.8,20.5,67.2C558.7,84.3,580.8,90.9,602.9,97.5z"/>
			<path id="XMLID_286_" class="st2" d="M429,97.5H516V10.6c-6.8,22.4-13.7,44.8-20.5,67.2C473.3,84.3,451.2,90.9,429,97.5z"/>
			<path id="XMLID_290_" class="st2" d="M602.9,97.5H516v86.9c6.8-22.4,13.7-44.8,20.5-67.2C558.7,110.7,580.8,104.1,602.9,97.5z"/>
			<path id="XMLID_291_" class="st2" d="M429,97.5H516v86.9c-6.8-22.4-13.7-44.8-20.5-67.2C473.3,110.7,451.2,104.1,429,97.5z"/>
		</g>
	</g>
	<g id="XMLID_292_">
		<g id="XMLID_296_">
			<circle id="XMLID_297_" class="st1" cx="505" cy="602.7" r="94.3"/>
		</g>
		<g id="XMLID_293_">
			<path id="XMLID_295_" class="st2" d="M591.9,602.7H505v-86.9c6.8,22.4,13.7,44.8,20.5,67.2C547.7,589.5,569.8,596.1,591.9,602.7z
				"/>
			<path id="XMLID_294_" class="st2" d="M418,602.7H505v-86.9c-6.8,22.4-13.7,44.8-20.5,67.2C462.3,589.5,440.2,596.1,418,602.7z"/>
			<path id="XMLID_298_" class="st2" d="M591.9,602.7H505v86.9c6.8-22.4,13.7-44.8,20.5-67.2C547.7,615.9,569.8,609.3,591.9,602.7z"
				/>
			<path id="XMLID_299_" class="st2" d="M418,602.7H505v86.9c-6.8-22.4-13.7-44.8-20.5-67.2C462.3,615.9,440.2,609.3,418,602.7z"/>
		</g>
	</g>
	<g id="XMLID_300_">
		<g id="XMLID_306_">
			<circle id="XMLID_307_" class="st1" cx="120.6" cy="350.1" r="94.3"/>
		</g>
		<g id="XMLID_301_">
			<path id="XMLID_305_" class="st2" d="M207.5,350.1h-86.9v-86.9c6.8,22.4,13.7,44.8,20.5,67.2
				C163.3,336.9,185.4,343.5,207.5,350.1z"/>
			<path id="XMLID_304_" class="st2" d="M33.7,350.1h86.9v-86.9c-6.8,22.4-13.7,44.8-20.5,67.2C77.9,336.9,55.8,343.5,33.7,350.1z"
				/>
			<path id="XMLID_308_" class="st2" d="M207.5,350.1h-86.9v86.9c6.8-22.4,13.7-44.8,20.5-67.2C163.3,363.3,185.4,356.7,207.5,350.1
				z"/>
			<path id="XMLID_309_" class="st2" d="M33.7,350.1h86.9v86.9c-6.8-22.4-13.7-44.8-20.5-67.2C77.9,363.3,55.8,356.7,33.7,350.1z"/>
		</g>
	</g>
</g>
<g id="XMLID_1_">
</g>
<g id="XMLID_2_">
</g>
<g id="XMLID_3_">
</g>
<g id="XMLID_4_">
</g>
<g id="XMLID_5_">
</g>
<g id="XMLID_6_">
</g>
<g id="XMLID_7_">
</g>
<g id="XMLID_8_">
</g>
<g id="XMLID_9_">
</g>
<g id="XMLID_10_">
</g>
<g id="XMLID_11_">
</g>
<g id="XMLID_12_">
</g>
<g id="XMLID_13_">
</g>
<g id="XMLID_14_">
</g>
<g id="XMLID_15_">
</g>
</svg>
