<?xml version="1.0" encoding="utf-8"?>
<!-- Generator: Adobe Illustrator 19.0.0, SVG Export Plug-In . SVG Version: 6.00 Build 0)  -->
<svg version="1.1" id="Layer_1" xmlns="http://www.w3.org/2000/svg" xmlns:xlink="http://www.w3.org/1999/xlink" x="0px" y="0px"
	 width="100px" height="100px" viewBox="0 0 100 100" style="enable-background:new 0 0 100 100;" xml:space="preserve">
<style type="text/css">
	.st0{fill:none;}
	.st1{fill:#00A8E8;}
	.st2{fill:#007EA7;}
	.st3{fill:#FFFFFF;}
</style>
<g id="XMLID_455_">
	<g id="XMLID_357_">
		<g id="XMLID_317_">
			<rect id="XMLID_30_" x="-18.1" y="76.3" class="st0" width="138.3" height="23.7"/>
			<path id="XMLID_2_" class="st1" d="M10,79.1v3.6h0.4c0.3,0,0.5,0.1,0.6,0.2s0.2,0.3,0.2,0.4c0,0.2-0.1,0.3-0.2,0.4
				s-0.3,0.2-0.6,0.2H8.9c-0.3,0-0.5-0.1-0.6-0.2s-0.2-0.3-0.2-0.4c0-0.2,0.1-0.3,0.2-0.4s0.3-0.2,0.6-0.2V78H8.6
				C8.3,78,8.1,78,8,77.9s-0.2-0.3-0.2-0.4S7.9,77.1,8,77s0.3-0.2,0.6-0.2l1.4,0l3.1,4.8V78h-0.4c-0.3,0-0.5-0.1-0.6-0.2
				s-0.2-0.3-0.2-0.4s0.1-0.3,0.2-0.4s0.3-0.2,0.6-0.2l1.6,0c0.3,0,0.5,0.1,0.6,0.2s0.2,0.3,0.2,0.4c0,0.2-0.1,0.3-0.2,0.4
				S14.5,78,14.3,78v5.9h-1.2L10,79.1z"/>
			<path id="XMLID_4_" class="st1" d="M21.7,81.9h-4.9c0.1,0.3,0.3,0.6,0.7,0.8s0.7,0.3,1.3,0.3c0.4,0,1-0.1,1.8-0.3
				c0.3-0.1,0.5-0.1,0.6-0.1c0.2,0,0.3,0.1,0.4,0.2s0.2,0.3,0.2,0.4c0,0.2-0.1,0.3-0.2,0.4c-0.2,0.1-0.5,0.3-1.1,0.4
				s-1.2,0.2-1.7,0.2c-1,0-1.7-0.3-2.3-0.8s-0.9-1.2-0.9-2c0-0.8,0.3-1.5,0.9-2.1s1.3-0.8,2.2-0.8c0.5,0,0.9,0.1,1.3,0.3
				s0.7,0.4,0.9,0.6c0.3,0.3,0.5,0.6,0.7,1.1c0.1,0.3,0.2,0.6,0.2,1V81.9z M20.4,80.7c-0.2-0.3-0.4-0.6-0.7-0.8s-0.7-0.3-1.1-0.3
				c-0.4,0-0.8,0.1-1.1,0.3s-0.5,0.4-0.7,0.8H20.4z"/>
			<path id="XMLID_7_" class="st1" d="M28.5,78.6v4.1c0.3,0,0.4,0.1,0.6,0.2s0.2,0.3,0.2,0.4s-0.1,0.3-0.2,0.4s-0.3,0.2-0.6,0.2
				h-1.1v-0.3c-0.3,0.2-0.7,0.3-1,0.4s-0.6,0.1-0.9,0.1c-0.4,0-0.7-0.1-1-0.2s-0.5-0.4-0.7-0.7c-0.1-0.2-0.2-0.5-0.2-0.8v-2.6h-0.2
				c-0.3,0-0.5-0.1-0.6-0.2s-0.2-0.3-0.2-0.4c0-0.2,0.1-0.3,0.2-0.4s0.3-0.2,0.6-0.2h1.4v3.6c0,0.3,0.1,0.4,0.2,0.6s0.3,0.2,0.6,0.2
				c0.2,0,0.5,0,0.8-0.1s0.6-0.3,1-0.5v-2.4h-0.4c-0.3,0-0.5-0.1-0.6-0.2S26,79.4,26,79.2c0-0.2,0.1-0.3,0.2-0.4s0.3-0.2,0.6-0.2
				H28.5z"/>
			<path id="XMLID_9_" class="st1" d="M32.9,78.6v0.8c0.5-0.4,0.9-0.6,1.2-0.7s0.6-0.2,0.8-0.2c0.4,0,0.8,0.1,1.1,0.4
				c0.3,0.2,0.4,0.4,0.4,0.6c0,0.2-0.1,0.3-0.2,0.4s-0.3,0.2-0.4,0.2c-0.1,0-0.3-0.1-0.5-0.2s-0.3-0.2-0.4-0.2
				c-0.2,0-0.4,0.1-0.8,0.3s-0.8,0.5-1.3,0.9v1.8h1.7c0.3,0,0.5,0.1,0.6,0.2s0.2,0.3,0.2,0.4c0,0.2-0.1,0.3-0.2,0.4
				s-0.3,0.2-0.6,0.2h-3.6c-0.3,0-0.5-0.1-0.6-0.2s-0.2-0.3-0.2-0.4c0-0.2,0.1-0.3,0.2-0.4s0.3-0.2,0.6-0.2h0.7v-2.9h-0.4
				c-0.3,0-0.5-0.1-0.6-0.2s-0.2-0.3-0.2-0.4c0-0.2,0.1-0.3,0.2-0.4s0.3-0.2,0.6-0.2H32.9z"/>
			<path id="XMLID_11_" class="st1" d="M43.4,81.4c0,0.5-0.1,0.9-0.4,1.3s-0.6,0.8-1.1,1s-1,0.4-1.6,0.4c-0.5,0-1.1-0.1-1.6-0.4
				s-0.9-0.6-1.1-1s-0.4-0.9-0.4-1.4c0-0.5,0.1-1,0.4-1.4s0.6-0.8,1.1-1.1s1-0.4,1.6-0.4c0.5,0,1.1,0.1,1.6,0.4s0.9,0.6,1.1,1.1
				S43.4,80.9,43.4,81.4z M42.2,81.4c0-0.4-0.1-0.7-0.4-1.1c-0.4-0.4-0.9-0.7-1.5-0.7c-0.5,0-1,0.2-1.4,0.5s-0.5,0.8-0.5,1.2
				c0,0.4,0.2,0.7,0.6,1.1s0.8,0.5,1.4,0.5c0.5,0,1-0.2,1.4-0.5S42.2,81.8,42.2,81.4z"/>
			<path id="XMLID_14_" class="st1" d="M45.8,83.6c-0.1,0.1-0.2,0.2-0.3,0.2s-0.1,0.1-0.2,0.1c-0.2,0-0.3-0.1-0.4-0.2
				s-0.2-0.3-0.2-0.6v-0.8c0-0.3,0.1-0.5,0.2-0.6s0.3-0.2,0.4-0.2c0.1,0,0.3,0,0.4,0.1s0.2,0.2,0.2,0.4s0.1,0.3,0.2,0.4
				c0.1,0.1,0.3,0.2,0.6,0.4s0.6,0.2,0.9,0.2c0.5,0,1-0.1,1.3-0.4c0.2-0.2,0.3-0.3,0.3-0.6c0-0.1-0.1-0.3-0.2-0.4s-0.3-0.2-0.5-0.3
				c-0.2-0.1-0.5-0.1-1-0.2c-0.7-0.1-1.2-0.3-1.5-0.4s-0.6-0.4-0.8-0.7s-0.3-0.7-0.3-1c0-0.6,0.2-1.1,0.7-1.5s1.1-0.6,1.9-0.6
				c0.3,0,0.6,0,0.9,0.1s0.5,0.2,0.7,0.3c0.2-0.2,0.3-0.2,0.5-0.2c0.2,0,0.3,0.1,0.4,0.2s0.2,0.3,0.2,0.6v0.9c0,0.3-0.1,0.5-0.2,0.6
				s-0.3,0.2-0.4,0.2c-0.1,0-0.3,0-0.4-0.1C49.1,79.1,49,79,49,78.8s-0.1-0.3-0.2-0.4c-0.1-0.1-0.3-0.3-0.5-0.4s-0.5-0.2-0.8-0.2
				c-0.4,0-0.8,0.1-1,0.3s-0.4,0.4-0.4,0.6c0,0.1,0.1,0.3,0.2,0.4s0.3,0.2,0.5,0.3c0.1,0.1,0.5,0.1,1.1,0.3s1.1,0.3,1.4,0.4
				s0.6,0.4,0.8,0.7s0.3,0.7,0.3,1.1c0,0.6-0.2,1.1-0.6,1.4c-0.6,0.5-1.3,0.7-2.1,0.7c-0.3,0-0.7,0-1-0.1S46.1,83.8,45.8,83.6z"/>
			<path id="XMLID_16_" class="st1" d="M54.4,79.8v2.4c0,0.3,0.1,0.4,0.2,0.5c0.2,0.1,0.5,0.2,0.9,0.2c0.6,0,1.2-0.1,1.7-0.4
				c0.2-0.1,0.4-0.2,0.5-0.2c0.2,0,0.3,0.1,0.4,0.2s0.2,0.3,0.2,0.4c0,0.2-0.1,0.3-0.2,0.4c-0.2,0.2-0.6,0.4-1.1,0.5s-1,0.2-1.4,0.2
				c-0.7,0-1.3-0.2-1.7-0.5s-0.6-0.7-0.6-1.2v-2.6h-0.4c-0.3,0-0.5-0.1-0.6-0.2S52,79.4,52,79.2c0-0.2,0.1-0.3,0.2-0.4
				s0.3-0.2,0.6-0.2h0.4v-1.1c0-0.3,0.1-0.5,0.2-0.6s0.3-0.2,0.4-0.2c0.2,0,0.3,0.1,0.4,0.2s0.2,0.3,0.2,0.6v1.1h2.2
				c0.3,0,0.5,0.1,0.6,0.2s0.2,0.3,0.2,0.4c0,0.2-0.1,0.3-0.2,0.4s-0.3,0.2-0.6,0.2H54.4z"/>
			<path id="XMLID_18_" class="st1" d="M64.9,81.9H60c0.1,0.3,0.3,0.6,0.7,0.8s0.7,0.3,1.3,0.3c0.4,0,1-0.1,1.8-0.3
				c0.3-0.1,0.5-0.1,0.6-0.1c0.2,0,0.3,0.1,0.4,0.2s0.2,0.3,0.2,0.4c0,0.2-0.1,0.3-0.2,0.4c-0.2,0.1-0.5,0.3-1.1,0.4
				s-1.2,0.2-1.7,0.2c-1,0-1.7-0.3-2.3-0.8s-0.9-1.2-0.9-2c0-0.8,0.3-1.5,0.9-2.1s1.3-0.8,2.2-0.8c0.5,0,0.9,0.1,1.3,0.3
				s0.7,0.4,0.9,0.6c0.3,0.3,0.5,0.6,0.7,1.1c0.1,0.3,0.2,0.6,0.2,1V81.9z M63.6,80.7c-0.2-0.3-0.4-0.6-0.7-0.8s-0.7-0.3-1.1-0.3
				c-0.4,0-0.8,0.1-1.1,0.3s-0.5,0.4-0.7,0.8H63.6z"/>
			<path id="XMLID_21_" class="st1" d="M69.7,76.3v6.4h1.4c0.3,0,0.5,0.1,0.6,0.2s0.2,0.3,0.2,0.4c0,0.2-0.1,0.3-0.2,0.4
				s-0.3,0.2-0.6,0.2h-4.1c-0.3,0-0.5-0.1-0.6-0.2s-0.2-0.3-0.2-0.4c0-0.2,0.1-0.3,0.2-0.4s0.3-0.2,0.6-0.2h1.4v-5.2h-1
				c-0.3,0-0.5-0.1-0.6-0.2s-0.2-0.3-0.2-0.4c0-0.2,0.1-0.3,0.2-0.4s0.3-0.2,0.6-0.2H69.7z"/>
			<path id="XMLID_23_" class="st1" d="M76.9,76.3v6.4h1.4c0.3,0,0.5,0.1,0.6,0.2s0.2,0.3,0.2,0.4c0,0.2-0.1,0.3-0.2,0.4
				s-0.3,0.2-0.6,0.2h-4.1c-0.3,0-0.5-0.1-0.6-0.2s-0.2-0.3-0.2-0.4c0-0.2,0.1-0.3,0.2-0.4s0.3-0.2,0.6-0.2h1.4v-5.2h-1
				c-0.3,0-0.5-0.1-0.6-0.2s-0.2-0.3-0.2-0.4c0-0.2,0.1-0.3,0.2-0.4s0.3-0.2,0.6-0.2H76.9z"/>
			<path id="XMLID_25_" class="st1" d="M84.6,83.9v-0.3c-0.3,0.2-0.6,0.3-1,0.4s-0.7,0.1-1,0.1c-0.6,0-1.2-0.2-1.6-0.5
				s-0.6-0.7-0.6-1.1c0-0.5,0.3-1,0.8-1.4s1.2-0.6,2.1-0.6c0.4,0,0.8,0,1.3,0.1v-0.3c0-0.2-0.1-0.3-0.2-0.4s-0.4-0.2-0.9-0.2
				c-0.4,0-0.8,0.1-1.4,0.2c-0.2,0.1-0.4,0.1-0.5,0.1c-0.2,0-0.3-0.1-0.4-0.2S81,79.5,81,79.3c0-0.1,0-0.2,0.1-0.3s0.1-0.1,0.2-0.2
				s0.2-0.1,0.4-0.2c0.3-0.1,0.6-0.1,0.9-0.2s0.6-0.1,0.8-0.1c0.7,0,1.3,0.2,1.7,0.5s0.6,0.8,0.6,1.3v2.5H86c0.3,0,0.5,0.1,0.6,0.2
				s0.2,0.3,0.2,0.4c0,0.2-0.1,0.3-0.2,0.4s-0.3,0.2-0.6,0.2H84.6z M84.6,81.8c-0.5-0.1-0.9-0.1-1.3-0.1c-0.5,0-0.9,0.1-1.3,0.4
				c-0.2,0.2-0.3,0.3-0.3,0.5c0,0.1,0.1,0.2,0.2,0.3c0.2,0.1,0.5,0.2,0.8,0.2c0.3,0,0.6-0.1,1-0.2s0.7-0.3,1-0.5V81.8z"/>
			<path id="XMLID_28_" class="st1" d="M90.5,78.6v0.8c0.5-0.4,0.9-0.6,1.2-0.7s0.6-0.2,0.8-0.2c0.4,0,0.8,0.1,1.1,0.4
				c0.3,0.2,0.4,0.4,0.4,0.6c0,0.2-0.1,0.3-0.2,0.4s-0.3,0.2-0.4,0.2c-0.1,0-0.3-0.1-0.5-0.2s-0.3-0.2-0.4-0.2
				c-0.2,0-0.4,0.1-0.8,0.3s-0.8,0.5-1.3,0.9v1.8h1.7c0.3,0,0.5,0.1,0.6,0.2s0.2,0.3,0.2,0.4c0,0.2-0.1,0.3-0.2,0.4
				s-0.3,0.2-0.6,0.2h-3.6c-0.3,0-0.5-0.1-0.6-0.2s-0.2-0.3-0.2-0.4c0-0.2,0.1-0.3,0.2-0.4s0.3-0.2,0.6-0.2h0.7v-2.9h-0.4
				c-0.3,0-0.5-0.1-0.6-0.2S88,79.4,88,79.2c0-0.2,0.1-0.3,0.2-0.4s0.3-0.2,0.6-0.2H90.5z"/>
		</g>
		<path id="XMLID_318_" class="st2" d="M82,87.5c0,0.3-0.2,0.5-0.5,0.5h-63c-0.3,0-0.5-0.2-0.5-0.5l0,0c0-0.3,0.2-0.5,0.5-0.5h63
			C81.8,87,82,87.2,82,87.5L82,87.5z"/>
		<path id="XMLID_319_" class="st2" d="M67,91.5c0,0.3-0.2,0.5-0.5,0.5h-34c-0.3,0-0.5-0.2-0.5-0.5l0,0c0-0.3,0.2-0.5,0.5-0.5h34
			C66.8,91,67,91.2,67,91.5L67,91.5z"/>
	</g>
	<g id="XMLID_273_">
		<path id="XMLID_274_" class="st2" d="M86.3,46c-5,1.3-10.4,3.4-15.8,6.9c-5.5,3.7-9.6,8-12.7,12.2c-2.2-3.3-4.5-6.6-6.7-10
			c5-1.5,10.4-3.8,15.7-7.4c5.3-3.6,9.5-7.7,12.8-11.8C81.9,39.4,84.1,42.7,86.3,46z"/>
		<path id="XMLID_275_" class="st2" d="M47.7,55.5c-3-0.5-8.5-1.9-14.3-5.8c-5.9-3.9-9.3-8.6-10.9-11.2c-1.6,2.4-3.2,4.8-4.8,7.2
			c3.1,0.6,8.5,2.1,14.3,6c5.7,3.9,9.2,8.3,10.9,11C44.5,60.3,46.1,57.9,47.7,55.5z"/>
		<path id="XMLID_281_" class="st2" d="M83,30.4c-3-0.5-8.5-1.9-14.2-5.7c-5.9-3.9-9.2-8.5-10.8-11.1c-1.6,2.4-3.2,4.8-4.8,7.2
			c3.1,0.6,8.5,2.1,14.2,5.9c5.7,3.8,9.1,8.3,10.8,10.9C79.8,35.2,81.4,32.8,83,30.4z"/>
		<path id="XMLID_282_" class="st2" d="M51.1,22.3c-4.9,1.3-10.3,3.4-15.6,7c-5.4,3.7-9.4,8.1-12.3,12.4c-2.3-3.4-4.7-6.8-7-10.1
			c4.9-1.5,10.3-3.9,15.5-7.5c5.2-3.6,9.3-7.8,12.5-11.9C46.4,15.6,48.8,18.9,51.1,22.3z"/>
		<g id="XMLID_283_">
			<g id="XMLID_302_">
				<circle id="XMLID_303_" class="st1" cx="84.8" cy="38.4" r="8.6"/>
			</g>
			<g id="XMLID_370_">
				<path id="XMLID_364_" class="st3" d="M92.7,38.4h-7.9v-7.9c0.6,2,1.2,4.1,1.9,6.1C88.6,37.2,90.7,37.8,92.7,38.4z"/>
				<path id="XMLID_365_" class="st3" d="M76.8,38.4h7.9v-7.9c-0.6,2-1.2,4.1-1.9,6.1C80.9,37.2,78.8,37.8,76.8,38.4z"/>
				<path id="XMLID_369_" class="st3" d="M92.7,38.4h-7.9v7.9c0.6-2,1.2-4.1,1.9-6.1C88.6,39.6,90.7,39,92.7,38.4z"/>
				<path id="XMLID_366_" class="st3" d="M76.8,38.4h7.9v7.9c-0.6-2-1.2-4.1-1.9-6.1C80.9,39.6,78.8,39,76.8,38.4z"/>
			</g>
		</g>
		<g id="XMLID_284_">
			<g id="XMLID_288_">
				<circle id="XMLID_289_" class="st1" cx="51.8" cy="15.4" r="8.6"/>
			</g>
			<g id="XMLID_285_">
				<path id="XMLID_287_" class="st3" d="M59.7,15.4h-7.9V7.5c0.6,2,1.2,4.1,1.9,6.1C55.6,14.2,57.7,14.8,59.7,15.4z"/>
				<path id="XMLID_286_" class="st3" d="M43.8,15.4h7.9V7.5c-0.6,2-1.2,4.1-1.9,6.1C47.9,14.2,45.8,14.8,43.8,15.4z"/>
				<path id="XMLID_290_" class="st3" d="M59.7,15.4h-7.9v7.9c0.6-2,1.2-4.1,1.9-6.1C55.6,16.6,57.7,16,59.7,15.4z"/>
				<path id="XMLID_291_" class="st3" d="M43.8,15.4h7.9v7.9c-0.6-2-1.2-4.1-1.9-6.1C47.9,16.6,45.8,16,43.8,15.4z"/>
			</g>
		</g>
		<g id="XMLID_292_">
			<g id="XMLID_296_">
				<circle id="XMLID_297_" class="st1" cx="50.8" cy="61.4" r="8.6"/>
			</g>
			<g id="XMLID_293_">
				<path id="XMLID_295_" class="st3" d="M58.7,61.4h-7.9v-7.9c0.6,2,1.2,4.1,1.9,6.1C54.6,60.2,56.7,60.8,58.7,61.4z"/>
				<path id="XMLID_294_" class="st3" d="M42.8,61.4h7.9v-7.9c-0.6,2-1.2,4.1-1.9,6.1C46.9,60.2,44.8,60.8,42.8,61.4z"/>
				<path id="XMLID_298_" class="st3" d="M58.7,61.4h-7.9v7.9c0.6-2,1.2-4.1,1.9-6.1C54.6,62.6,56.7,62,58.7,61.4z"/>
				<path id="XMLID_299_" class="st3" d="M42.8,61.4h7.9v7.9c-0.6-2-1.2-4.1-1.9-6.1C46.9,62.6,44.8,62,42.8,61.4z"/>
			</g>
		</g>
		<g id="XMLID_300_">
			<g id="XMLID_306_">
				<circle id="XMLID_307_" class="st1" cx="15.8" cy="38.4" r="8.6"/>
			</g>
			<g id="XMLID_301_">
				<path id="XMLID_305_" class="st3" d="M23.7,38.4h-7.9v-7.9c0.6,2,1.2,4.1,1.9,6.1C19.6,37.2,21.7,37.8,23.7,38.4z"/>
				<path id="XMLID_304_" class="st3" d="M7.8,38.4h7.9v-7.9c-0.6,2-1.2,4.1-1.9,6.1C11.9,37.2,9.8,37.8,7.8,38.4z"/>
				<path id="XMLID_308_" class="st3" d="M23.7,38.4h-7.9v7.9c0.6-2,1.2-4.1,1.9-6.1C19.6,39.6,21.7,39,23.7,38.4z"/>
				<path id="XMLID_309_" class="st3" d="M7.8,38.4h7.9v7.9c-0.6-2-1.2-4.1-1.9-6.1C11.9,39.6,9.8,39,7.8,38.4z"/>
			</g>
		</g>
	</g>
</g>
<g id="XMLID_1_">
</g>
<g id="XMLID_31_">
</g>
<g id="XMLID_32_">
</g>
<g id="XMLID_33_">
</g>
<g id="XMLID_34_">
</g>
<g id="XMLID_35_">
</g>
<g id="XMLID_36_">
</g>
<g id="XMLID_37_">
</g>
<g id="XMLID_38_">
</g>
<g id="XMLID_39_">
</g>
<g id="XMLID_40_">
</g>
<g id="XMLID_41_">
</g>
<g id="XMLID_42_">
</g>
<g id="XMLID_43_">
</g>
<g id="XMLID_44_">
</g>
</svg>
